<?xml version="1.0" standalone="no"?><!DOCTYPE svg PUBLIC "-//W3C//DTD SVG 1.1//EN" "http://www.w3.org/Graphics/SVG/1.1/DTD/svg11.dtd"><svg class="icon" height="512" viewBox="0 0 1024 1024" version="1.1" xmlns="http://www.w3.org/2000/svg"><path d="M480.141408 69.061912 199.944821 337.016687l-66.893526 0c-38.252209 0-69.261457 31.009248-69.261457 69.261457l0 197.656709c0 38.252209 31.009248 69.261457 69.261457 69.261457l66.893526 0 280.196587 267.954775c26.01756 25.816992 70.267367 7.388271 70.267367-29.265534L550.408775 98.327446C550.408775 61.673641 506.159992 43.24492 480.141408 69.061912zM694.106548 301.544801c-14.897292-17.005302-40.757263-18.714224-57.760518-3.817955-17.004279 14.896268-18.7132 40.756239-3.816932 57.760518 36.144198 41.261753 55.249325 92.999091 55.249325 149.618623 0 56.350402-19.134803 108.12151-55.338353 149.715837-14.84101 17.052374-13.049201 42.907229 4.003174 57.748239 7.753591 6.749728 17.324574 10.058077 26.855648 10.058077 11.429307 0 22.799262-4.761444 30.891568-14.060227 49.361221-56.712653 75.451436-127.069047 75.451436-203.461925C769.641895 428.346765 743.523027 357.955578 694.106548 301.544801zM829.366138 192.560644c-16.337083-15.627932-42.246173-15.051811-57.873082 1.282203-15.626909 16.335037-15.053857 42.24515 1.281179 57.873082 34.013675 32.53909 60.190871 70.364581 77.807087 112.424512 17.96721 42.901089 27.077705 90.329285 27.077705 140.965545 0 49.403177-9.348925 96.608292-27.785833 140.306536-17.923208 42.478464-43.979654 80.639598-77.44586 113.423259-16.148795 15.819291-16.415878 41.73452-0.596588 57.883315 8.016581 8.18338 18.625196 12.288884 29.243021 12.288884 10.333346 0 20.675902-3.889587 28.640294-11.692297 41.259706-40.418548 73.41915-87.547938 95.583962-140.079362 22.709211-53.824883 34.224476-111.73685 34.224476-172.130336C959.524546 382.097418 914.51647 274.020934 829.366138 192.560644z" /></svg>